HIERARCHY
ROOT mixamorig:Hips
{
	OFFSET 0.000000 201.639420 0.000000
	CHANNELS 6 Xposition Yposition Zposition Xrotation Yrotation Zrotation
	JOINT mixamorig:Spine
	{
		OFFSET 0.006200 19.524994 -2.481800
		CHANNELS 3 Xrotation Yrotation Zrotation
		JOINT mixamorig:Spine1
		{
			OFFSET -0.000900 22.835007 -2.825400
			CHANNELS 3 Xrotation Yrotation Zrotation
			JOINT mixamorig:Spine2
			{
				OFFSET -0.020600 26.552490 -3.193300
				CHANNELS 3 Xrotation Yrotation Zrotation
				JOINT mixamorig:Neck
				{
					OFFSET -0.060000 30.701813 1.352200
					CHANNELS 3 Xrotation Yrotation Zrotation
					JOINT mixamorig:Head
					{
						OFFSET -0.087200 22.547607 3.670900
						CHANNELS 3 Xrotation Yrotation Zrotation
						JOINT mixamorig:HeadTop_End
						{
							OFFSET -0.830600 40.355194 7.893500
							CHANNELS 3 Xrotation Yrotation Zrotation
							End Site
							{
								OFFSET 0.000000 30.592346 0.000000
							}
						}
						JOINT mixamorig:RightEye
						{
							OFFSET -6.302100 18.118591 16.197100
							CHANNELS 3 Xrotation Yrotation Zrotation
							End Site
							{
								OFFSET 0.000000 30.592346 0.000000
							}
						}
						JOINT mixamorig:LeftEye
						{
							OFFSET 6.741500 18.382690 16.401899
							CHANNELS 3 Xrotation Yrotation Zrotation
							End Site
							{
								OFFSET 0.000000 30.592346 0.000000
							}
						}
					}
				}
				JOINT mixamorig:LeftShoulder
				{
					OFFSET 11.924900 18.230499 1.425400
					CHANNELS 3 Xrotation Yrotation Zrotation
					JOINT mixamorig:LeftArm
					{
						OFFSET 25.435989 -0.697632 -5.229300
						CHANNELS 3 Xrotation Yrotation Zrotation
						JOINT mixamorig:LeftForeArm
						{
							OFFSET 54.684776 0.000000 0.000000
							CHANNELS 3 Xrotation Yrotation Zrotation
							JOINT mixamorig:LeftHand
							{
								OFFSET 55.098175 0.000000 0.000000
								CHANNELS 3 Xrotation Yrotation Zrotation
								JOINT mixamorig:LeftHandMiddle1
								{
									OFFSET 23.369751 0.000000 0.000000
									CHANNELS 3 Xrotation Yrotation Zrotation
									JOINT mixamorig:LeftHandMiddle2
									{
										OFFSET 6.378677 0.000000 0.000000
										CHANNELS 3 Xrotation Yrotation Zrotation
										JOINT mixamorig:LeftHandMiddle3
										{
											OFFSET 6.148331 0.000000 0.000000
											CHANNELS 3 Xrotation Yrotation Zrotation
											JOINT mixamorig:LeftHandMiddle4
											{
												OFFSET 6.582504 0.000000 0.000000
												CHANNELS 3 Xrotation Yrotation Zrotation
												End Site
												{
													OFFSET -1.168900 6.395691 1.028606
												}
											}
										}
									}
								}
								JOINT mixamorig:LeftHandThumb1
								{
									OFFSET 7.235672 -3.848206 5.434273
									CHANNELS 3 Xrotation Yrotation Zrotation
									JOINT mixamorig:LeftHandThumb2
									{
										OFFSET 6.568451 -3.792297 3.792300
										CHANNELS 3 Xrotation Yrotation Zrotation
										JOINT mixamorig:LeftHandThumb3
										{
											OFFSET 6.063080 -3.500519 3.500518
											CHANNELS 3 Xrotation Yrotation Zrotation
											JOINT mixamorig:LeftHandThumb4
											{
												OFFSET 4.793182 -2.767334 2.767349
												CHANNELS 3 Xrotation Yrotation Zrotation
												End Site
												{
													OFFSET 0.101639 6.054260 1.275483
												}
											}
										}
									}
								}
								JOINT mixamorig:LeftHandIndex1
								{
									OFFSET 23.101074 -0.309540 4.992809
									CHANNELS 3 Xrotation Yrotation Zrotation
									JOINT mixamorig:LeftHandIndex2
									{
										OFFSET 6.226883 0.000000 0.000000
										CHANNELS 3 Xrotation Yrotation Zrotation
										JOINT mixamorig:LeftHandIndex3
										{
											OFFSET 6.094330 0.000000 0.000000
											CHANNELS 3 Xrotation Yrotation Zrotation
											JOINT mixamorig:LeftHandIndex4
											{
												OFFSET 5.482605 0.000000 0.000000
												CHANNELS 3 Xrotation Yrotation Zrotation
												End Site
												{
													OFFSET -1.427902 5.233032 0.797164
												}
											}
										}
									}
								}
								JOINT mixamorig:LeftHandRing1
								{
									OFFSET 22.299240 0.021149 -3.964172
									CHANNELS 3 Xrotation Yrotation Zrotation
									JOINT mixamorig:LeftHandRing2
									{
										OFFSET 6.321869 0.000000 0.000000
										CHANNELS 3 Xrotation Yrotation Zrotation
										JOINT mixamorig:LeftHandRing3
										{
											OFFSET 5.899796 0.000000 0.000000
											CHANNELS 3 Xrotation Yrotation Zrotation
											JOINT mixamorig:LeftHandRing4
											{
												OFFSET 6.517899 0.000000 0.000000
												CHANNELS 3 Xrotation Yrotation Zrotation
												End Site
												{
													OFFSET -1.637299 6.232208 0.980890
												}
											}
										}
									}
								}
								JOINT mixamorig:LeftHandPinky1
								{
									OFFSET 20.463791 -0.302338 -8.562233
									CHANNELS 3 Xrotation Yrotation Zrotation
									JOINT mixamorig:LeftHandPinky2
									{
										OFFSET 6.908646 0.000000 0.000000
										CHANNELS 3 Xrotation Yrotation Zrotation
										JOINT mixamorig:LeftHandPinky3
										{
											OFFSET 4.622849 0.000000 0.000000
											CHANNELS 3 Xrotation Yrotation Zrotation
											JOINT mixamorig:LeftHandPinky4
											{
												OFFSET 5.216080 0.000000 0.000000
												CHANNELS 3 Xrotation Yrotation Zrotation
												End Site
												{
													OFFSET -0.606308 5.116241 0.814926
												}
											}
										}
									}
								}
							}
						}
					}
				}
				JOINT mixamorig:RightShoulder
				{
					OFFSET -12.001300 18.284088 1.348900
					CHANNELS 3 Xrotation Yrotation Zrotation
					JOINT mixamorig:RightArm
					{
						OFFSET -25.308500 -0.751312 -5.164599
						CHANNELS 3 Xrotation Yrotation Zrotation
						JOINT mixamorig:RightForeArm
						{
							OFFSET -54.684429 0.000000 0.000000
							CHANNELS 3 Xrotation Yrotation Zrotation
							JOINT mixamorig:RightHand
							{
								OFFSET -55.150291 0.000000 0.000000
								CHANNELS 3 Xrotation Yrotation Zrotation
								JOINT mixamorig:RightHandMiddle1
								{
									OFFSET -23.317566 0.000000 0.000000
									CHANNELS 3 Xrotation Yrotation Zrotation
									JOINT mixamorig:RightHandMiddle2
									{
										OFFSET -6.378403 0.000000 0.000000
										CHANNELS 3 Xrotation Yrotation Zrotation
										JOINT mixamorig:RightHandMiddle3
										{
											OFFSET -6.148193 0.000000 0.000000
											CHANNELS 3 Xrotation Yrotation Zrotation
											JOINT mixamorig:RightHandMiddle4
											{
												OFFSET -6.583389 0.000000 0.000000
												CHANNELS 3 Xrotation Yrotation Zrotation
												End Site
												{
													OFFSET 1.171692 6.395905 1.029786
												}
											}
										}
									}
								}
								JOINT mixamorig:RightHandThumb1
								{
									OFFSET -7.190521 -3.860474 5.435846
									CHANNELS 3 Xrotation Yrotation Zrotation
									JOINT mixamorig:RightHandThumb2
									{
										OFFSET -6.567429 -3.791718 3.791708
										CHANNELS 3 Xrotation Yrotation Zrotation
										JOINT mixamorig:RightHandThumb3
										{
											OFFSET -6.062469 -3.500153 3.500166
											CHANNELS 3 Xrotation Yrotation Zrotation
											JOINT mixamorig:RightHandThumb4
											{
												OFFSET -4.792618 -2.767029 2.767022
												CHANNELS 3 Xrotation Yrotation Zrotation
												End Site
												{
													OFFSET -0.100327 6.053253 1.276754
												}
											}
										}
									}
								}
								JOINT mixamorig:RightHandIndex1
								{
									OFFSET -23.048981 -0.310791 4.992554
									CHANNELS 3 Xrotation Yrotation Zrotation
									JOINT mixamorig:RightHandIndex2
									{
										OFFSET -6.227539 0.000000 0.000000
										CHANNELS 3 Xrotation Yrotation Zrotation
										JOINT mixamorig:RightHandIndex3
										{
											OFFSET -6.095047 0.000000 0.000000
											CHANNELS 3 Xrotation Yrotation Zrotation
											JOINT mixamorig:RightHandIndex4
											{
												OFFSET -5.484772 0.000000 0.000000
												CHANNELS 3 Xrotation Yrotation Zrotation
												End Site
												{
													OFFSET 1.420593 5.237305 0.797056
												}
											}
										}
									}
								}
								JOINT mixamorig:RightHandRing1
								{
									OFFSET -22.246323 0.020569 -3.963762
									CHANNELS 3 Xrotation Yrotation Zrotation
									JOINT mixamorig:RightHandRing2
									{
										OFFSET -6.322128 0.000000 0.000000
										CHANNELS 3 Xrotation Yrotation Zrotation
										JOINT mixamorig:RightHandRing3
										{
											OFFSET -5.900024 0.000000 0.000000
											CHANNELS 3 Xrotation Yrotation Zrotation
											JOINT mixamorig:RightHandRing4
											{
												OFFSET -6.518356 0.000000 0.000000
												CHANNELS 3 Xrotation Yrotation Zrotation
												End Site
												{
													OFFSET 1.636398 6.232697 0.982186
												}
											}
										}
									}
								}
								JOINT mixamorig:RightHandPinky1
								{
									OFFSET -20.411011 -0.303314 -8.561701
									CHANNELS 3 Xrotation Yrotation Zrotation
									JOINT mixamorig:RightHandPinky2
									{
										OFFSET -6.907349 0.000000 0.000000
										CHANNELS 3 Xrotation Yrotation Zrotation
										JOINT mixamorig:RightHandPinky3
										{
											OFFSET -4.623840 0.000000 0.000000
											CHANNELS 3 Xrotation Yrotation Zrotation
											JOINT mixamorig:RightHandPinky4
											{
												OFFSET -5.218353 0.000000 0.000000
												CHANNELS 3 Xrotation Yrotation Zrotation
												End Site
												{
													OFFSET 0.602097 5.118835 0.816273
												}
											}
										}
									}
								}
							}
						}
					}
				}
			}
		}
	}
	JOINT mixamorig:LeftUpLeg
	{
		OFFSET 18.168400 -13.561905 -0.039000
		CHANNELS 3 Xrotation Yrotation Zrotation
		JOINT mixamorig:LeftLeg
		{
			OFFSET 0.577358 -80.825211 -3.695000
			CHANNELS 3 Xrotation Yrotation Zrotation
			JOINT mixamorig:LeftFoot
			{
				OFFSET -0.577356 -83.370262 -6.520700
				CHANNELS 3 Xrotation Yrotation Zrotation
				JOINT mixamorig:LeftToeBase
				{
					OFFSET 0.750401 -20.798306 25.135401
					CHANNELS 3 Xrotation Yrotation Zrotation
					JOINT mixamorig:LeftToe_End
					{
						OFFSET -0.000500 0.001200 19.917799
						CHANNELS 3 Xrotation Yrotation Zrotation
						End Site
						{
							OFFSET 0.000000 19.917805 0.000000
						}
					}
				}
			}
		}
	}
	JOINT mixamorig:RightUpLeg
	{
		OFFSET -18.162500 -13.585098 -0.041000
		CHANNELS 3 Xrotation Yrotation Zrotation
		JOINT mixamorig:RightLeg
		{
			OFFSET -0.595024 -80.945297 -3.631900
			CHANNELS 3 Xrotation Yrotation Zrotation
			JOINT mixamorig:RightFoot
			{
				OFFSET 0.595024 -83.218193 -6.561200
				CHANNELS 3 Xrotation Yrotation Zrotation
				JOINT mixamorig:RightToeBase
				{
					OFFSET -0.753601 -20.807106 25.115000
					CHANNELS 3 Xrotation Yrotation Zrotation
					JOINT mixamorig:RightToe_End
					{
						OFFSET 0.000299 0.001700 19.918200
						CHANNELS 3 Xrotation Yrotation Zrotation
						End Site
						{
							OFFSET 0.000000 19.918203 0.000000
						}
					}
				}
			}
		}
	}
}
MOTION
Frames: 5
Frame Time: 0.033333
-9.435296 255.965225 1.116508 -2.715227 -0.286327 4.477132 5.224013 3.945468 0.369671 1.914327 1.659634 0.416453 1.902746 1.678357 0.401839 7.077770 -0.295835 2.239834 -2.419830 -5.887526 -1.732139 0.000002 0.000000 -0.000000 0.000002 0.000000 -0.000000 0.000002 0.000000 -0.000000 -0.365691 4.718070 3.559619 -37.054630 -9.885359 -10.899624 0.000000 -68.244416 0.000017 -24.104579 -11.361906 11.316899 1.370291 5.112671 -18.943265 1.084404 3.714187 -32.541787 0.043389 0.773372 -6.422331 0.000001 -0.000000 -0.000000 -12.691839 -12.078892 -0.554840 5.270191 13.854761 -0.349696 -5.447216 -23.513520 6.991136 0.000002 0.000001 -0.000002 1.853854 5.744284 -22.990043 0.507848 2.599828 -22.102156 0.215457 1.712314 -14.342345 0.000001 0.000000 -0.000000 2.436934 6.027252 -30.223765 0.507847 2.599836 -22.101973 0.040663 0.748747 -6.217026 -0.000001 -0.000001 0.000001 7.845889 13.604624 -33.904284 0.390696 -1.773252 -19.785407 0.015317 0.459980 -3.814450 0.000002 0.000000 0.000001 -0.254984 -5.727763 -0.528070 -37.132672 31.838309 -6.763750 0.000016 67.683766 -0.000017 -20.390951 9.136319 -24.322748 -0.187802 4.907359 2.452043 0.292780 -2.000189 16.652930 0.028982 -0.396045 3.260018 0.000004 -0.000001 -0.000004 -13.344025 18.472605 -26.693088 4.739791 -8.887794 -0.223418 -3.175817 5.467018 -1.992285 0.000002 -0.000000 -0.000000 1.711231 7.115393 -15.200173 0.431823 -2.416493 20.260313 0.105073 -1.206648 9.952816 0.000003 -0.000000 -0.000001 0.069221 -1.006755 6.403866 0.420901 -2.386719 19.999690 0.002346 -0.047809 0.392355 -0.000002 -0.000000 0.000004 1.825765 -5.437884 25.029607 0.039521 -0.741863 6.099366 0.010734 -0.386974 3.176901 -0.000002 0.000002 -0.000003 -5.671682 8.499110 2.420377 4.524533 -7.548401 1.553743 20.908227 -2.725864 -20.573824 2.280941 -0.000001 -0.000006 0.000002 -0.000000 -0.000001 -7.658762 -9.400449 -7.560435 5.735760 -5.482923 -5.402690 22.211220 3.460297 23.900280 2.983414 -0.000006 0.000003 -0.000001 -0.000001 0.000000 
-10.057024 250.945053 1.000954 -2.661481 -0.250456 4.682602 5.081920 3.809217 0.123614 1.836139 1.607293 0.348223 1.824075 1.626006 0.333375 7.129088 -0.294692 2.438124 -2.910599 -5.774961 -1.754028 -0.000000 0.000000 -0.000000 -0.000000 0.000000 -0.000000 -0.000000 0.000000 -0.000000 -0.339089 4.523809 3.535768 -34.514104 -8.527361 -10.079845 0.000018 -68.974344 0.000015 -24.533336 -9.638327 9.120462 1.491862 5.262340 -20.146082 1.134222 3.790947 -33.302869 0.043275 0.772322 -6.413413 0.000001 -0.000001 0.000002 -11.287162 -10.232585 -0.030635 5.695150 15.485051 -0.676832 -5.343625 -22.589061 6.829233 0.000001 0.000000 -0.000002 2.052844 5.994022 -24.358367 0.507863 2.599878 -22.102492 0.217251 1.719311 -14.402292 -0.000001 0.000001 -0.000000 2.500233 6.051068 -31.052130 0.507867 2.599880 -22.102465 0.041217 0.753768 -6.258752 0.000000 0.000000 -0.000000 7.851113 13.718039 -33.611795 0.417228 -1.700806 -20.424084 0.015767 0.466746 -3.870596 -0.000001 -0.000000 0.000000 -0.281243 -5.729330 -0.893897 -32.436367 29.689480 -7.955013 -0.000008 68.363862 0.000014 -21.938884 8.321005 -23.089437 -0.252904 4.544522 3.362593 0.325442 -2.106247 17.564723 0.036274 -0.410774 3.384565 0.000001 0.000002 -0.000002 -13.580404 18.365530 -25.980841 4.804107 -9.047015 -0.221993 -3.574810 6.602658 -1.964912 0.000001 -0.000000 0.000000 1.521370 6.975908 -13.641778 0.439379 -2.436859 20.438858 0.102876 -1.194041 9.847488 -0.000002 -0.000001 -0.000001 0.077072 -1.048762 7.212722 0.426759 -2.402771 20.139829 0.003555 -0.060252 0.494612 -0.000000 0.000000 -0.000002 1.786623 -5.299779 25.563981 0.047177 -0.810263 6.664088 0.011524 -0.400976 3.292044 -0.000001 -0.000002 0.000002 -5.507620 9.419847 2.849341 3.429588 -5.556643 0.660249 21.027408 -2.730562 -20.466025 1.992807 0.000003 -0.000006 0.000001 0.000000 0.000001 -7.914541 -9.682677 -7.801901 5.982009 -5.038365 -5.225372 22.920889 3.673936 24.613311 2.909020 0.000006 -0.000000 0.000004 0.000001 -0.000000 
-10.698004 244.152420 0.925969 -2.676550 -0.147801 4.865630 5.013802 3.662767 -0.109911 1.775254 1.548560 0.253225 1.763104 1.566758 0.237395 7.124605 -0.315180 2.582832 -3.485987 -5.792070 -1.814694 0.000001 0.000000 0.000000 0.000001 0.000000 0.000000 0.000001 0.000000 0.000000 -0.346247 4.471278 3.756852 -31.759167 -6.845429 -9.859808 0.000022 -70.532891 0.000031 -24.449997 -7.998800 7.628549 1.609345 5.413787 -21.179887 1.177435 3.855796 -33.950961 0.043009 0.769970 -6.393752 -0.000003 -0.000001 0.000004 -10.203309 -8.779962 0.385043 5.844659 16.015440 -0.786021 -5.124746 -20.650406 6.481289 -0.000002 0.000001 -0.000001 2.277121 6.250362 -25.868921 0.507877 2.599907 -22.102506 0.218792 1.725287 -14.453529 -0.000000 0.000000 0.000001 2.596038 6.122058 -31.925175 0.507858 2.599867 -22.102531 0.041534 0.756715 -6.283251 -0.000000 -0.000000 -0.000000 7.736045 13.655099 -33.318458 0.445419 -1.626464 -21.081956 0.016210 0.473208 -3.924349 -0.000001 -0.000001 0.000001 -0.297935 -5.571939 -1.362206 -27.566775 26.603633 -8.750563 -0.000016 70.090315 0.000017 -23.642148 7.444629 -21.637597 -0.369003 4.135514 5.058354 0.359304 -2.210325 18.463979 0.042347 -0.429725 3.543400 0.000001 0.000001 0.000002 -13.661732 17.753451 -25.457768 4.881986 -9.240200 -0.220013 -3.703952 6.972539 -1.955852 -0.000001 -0.000001 0.000000 1.261303 6.749853 -11.503941 0.451670 -2.469556 20.725830 0.102079 -1.189463 9.809575 0.000001 -0.000000 -0.000001 0.084039 -1.083583 8.198806 0.432849 -2.419312 20.284721 0.005795 -0.073939 0.606962 -0.000002 0.000001 0.000001 1.762777 -5.171638 26.407349 0.053717 -0.864401 7.111690 0.012331 -0.414760 3.405392 0.000002 -0.000001 0.000001 -5.441241 9.828687 3.114280 2.732172 -4.090898 0.282332 20.974939 -2.760477 -19.021809 1.951079 -0.000002 -0.000007 0.000002 0.000000 0.000001 -7.943753 -9.968620 -7.829553 6.089357 -5.539731 -5.268789 22.553438 3.455365 23.573688 3.036815 -0.000002 -0.000014 -0.000001 0.000001 -0.000002 
-11.357908 235.654373 0.874056 -2.771070 0.012849 4.944521 5.090628 3.436430 -0.213494 1.764024 1.454402 0.188345 1.752768 1.471849 0.171328 6.987870 -0.284633 2.462883 -4.158321 -5.710700 -1.822741 -0.000000 0.000000 0.000000 -0.000000 0.000000 0.000000 -0.000000 0.000000 0.000000 -0.350737 4.566510 3.671863 -28.379134 -4.545299 -10.215444 0.000024 -73.395075 0.000027 -23.994523 -6.949461 7.470333 1.706575 5.542111 -21.954409 1.198796 3.887248 -34.267537 0.041629 0.757582 -6.290382 0.000002 -0.000000 0.000001 -9.107298 -7.216362 0.660142 5.906046 16.212953 -0.827793 -4.848470 -18.491740 6.099327 0.000000 0.000002 -0.000002 2.453016 6.456816 -26.878222 0.507859 2.599863 -22.102386 0.217309 1.719558 -14.404329 0.000000 -0.000000 -0.000001 2.683267 6.193352 -32.617859 0.507861 2.599872 -22.102362 0.040733 0.749326 -6.221901 -0.000000 0.000001 -0.000001 7.638898 13.616459 -33.027513 0.464757 -1.576872 -21.522192 0.016130 0.471957 -3.913889 0.000000 0.000000 -0.000001 -0.363532 -5.728606 -2.051233 -22.546615 23.405462 -8.380675 0.000027 72.726440 -0.000014 -25.713089 7.028098 -21.001430 -0.523942 3.663164 7.555743 0.390043 -2.300276 19.245135 0.047729 -0.451653 3.726700 0.000001 -0.000002 0.000001 -13.538675 16.665950 -25.249980 4.972248 -9.464360 -0.217400 -3.603026 6.685750 -1.963202 -0.000002 -0.000000 0.000002 0.940649 6.426392 -8.787615 0.467293 -2.510402 21.085339 0.103072 -1.195161 9.857038 -0.000003 -0.000000 -0.000002 0.080725 -1.061065 9.341290 0.442249 -2.444543 20.506106 0.012158 -0.087038 0.715658 -0.000002 0.000000 -0.000001 1.799135 -5.133781 27.699342 0.059002 -0.905702 7.453626 0.013193 -0.428948 3.522019 0.000000 -0.000001 -0.000000 -6.072906 9.704823 3.266718 3.535634 -3.135153 0.499720 20.793664 -2.440883 -16.073440 2.401476 -0.000000 -0.000003 0.000001 0.000000 -0.000001 -8.174579 -9.953349 -7.551812 6.649559 -7.093854 -5.643103 21.976934 3.139720 21.063759 3.621379 -0.000003 0.000005 0.000001 0.000000 -0.000000 
-12.065639 225.231918 0.941151 -3.235905 0.366408 4.953954 5.473466 3.243690 -0.209531 1.867182 1.373082 0.153032 1.857592 1.389671 0.134152 6.819968 -0.248208 2.189090 -5.020417 -5.711382 -1.777385 -0.000000 0.000000 -0.000000 -0.000000 0.000000 -0.000000 -0.000000 0.000000 -0.000000 -0.193505 3.890289 2.541049 -24.442616 -1.387683 -10.597237 0.000123 -77.554674 0.000115 -23.104498 -5.956717 7.119035 1.719099 5.566045 -21.999196 1.167393 3.840865 -33.801527 0.039468 0.737614 -6.123884 0.000001 0.000001 -0.000002 -7.911142 -5.380792 0.663776 6.034030 16.653603 -0.921593 -4.678625 -17.350350 5.905460 -0.000002 -0.000000 0.000002 2.435069 6.484658 -26.439447 0.507856 2.599845 -22.102342 0.212130 1.699253 -14.230693 0.000001 0.000002 -0.000005 2.697517 6.213099 -32.641576 0.507851 2.599860 -22.102308 0.039406 0.737160 -6.120202 -0.000001 -0.000002 0.000003 7.732039 13.839553 -32.804845 0.458841 -1.591953 -21.388331 0.016263 0.474082 -3.931569 -0.000003 0.000001 -0.000000 -0.420695 -5.991425 -2.451781 -17.512501 19.852307 -7.056451 0.000011 76.405078 -0.000010 -26.911212 6.554595 -21.511747 -0.650580 3.218352 9.968155 0.410602 -2.358292 19.750957 0.053215 -0.473123 3.906286 -0.000001 -0.000001 -0.000000 -13.199068 15.532214 -25.643708 5.074177 -9.717974 -0.214106 -3.454650 6.263917 -1.973212 0.000002 0.000001 -0.000000 0.658023 6.102412 -6.268848 0.482221 -2.548742 21.423554 0.105767 -1.210613 9.985757 0.000001 0.000002 -0.000004 0.057813 -0.945745 10.262484 0.457016 -2.483632 20.849765 0.024491 -0.099240 0.817112 -0.000000 0.000001 0.000001 1.864811 -5.154226 29.029284 0.063093 -0.936514 7.708503 0.014198 -0.445007 3.654144 -0.000001 0.000001 0.000001 -6.829135 9.462501 3.501557 5.156388 -2.991864 1.003943 21.758370 -2.145063 -13.380965 2.119305 0.000003 -0.000004 0.000002 0.000001 0.000000 -8.247686 -10.019630 -7.205283 7.416326 -8.276747 -6.100221 22.829839 3.085081 18.723915 2.932694 0.000000 0.000003 0.000000 0.000000 0.000000 
